M48
; DRILL file KiCad 10.0.6-10.0.6~ubuntu24.04.1 date 2026-08-30T11:16:09
; FORMAT={-:-/ absolute / metric / decimal}
; #@! TF.CreationDate,2026-08-30T11:16:09+02:00
; #@! TF.GenerationSoftware,Kicad,Pcbnew,10.0.6-10.0.6~ubuntu24.04.1
; #@! TF.FileFunction,Plated,1,4,PTH
FMAT,2
METRIC
; #@! TA.AperFunction,Plated,PTH,ViaDrill
T1C0.300
; #@! TA.AperFunction,Plated,PTH,ComponentDrill
T2C0.610
; #@! TA.AperFunction,Plated,PTH,ComponentDrill
T3C0.900
; #@! TA.AperFunction,Plated,PTH,ComponentDrill
T4C1.100
; #@! TA.AperFunction,Plated,PTH,ComponentDrill
T5C1.200
; #@! TA.AperFunction,Plated,PTH,ComponentDrill
T6C3.200
%
G90
G05
T1
X87.45Y-140.14
X87.45Y-142.1
X87.46Y-136.96
X89.69Y-138.03
X89.7Y-136.64
X92.57Y-138.55
X92.6Y-136.22
X92.74Y-112.78
X92.74Y-116.0
X92.74Y-121.3
X92.74Y-123.84
X92.74Y-125.45
X92.75Y-130.74
X92.76Y-118.7
X92.76Y-128.07
X93.509Y-141.929
X93.6Y-137.35
X93.85Y-138.14
X94.194Y-139.37
X94.844Y-141.36
X95.51Y-137.357
X95.71Y-127.586
X95.74Y-131.36
X95.75Y-121.17
X95.78Y-117.785
X95.89Y-140.49
X95.9Y-136.36
X96.2Y-130.05
X96.51Y-119.17
X96.59Y-124.62
X98.84Y-121.69
X98.85Y-116.18
X98.86Y-132.19
X98.87Y-126.33
X99.84Y-113.64
X99.84Y-116.675
X99.84Y-120.65
X99.84Y-125.98
X99.84Y-131.31
X100.8Y-125.26
X100.84Y-114.42
X101.27Y-128.045
X101.32Y-130.67
X101.46Y-119.44
X101.634Y-125.596
X101.75Y-131.97
X101.77Y-127.58
X101.83Y-121.045
X102.2Y-123.11
X102.45Y-117.81
X102.84Y-123.12
X102.84Y-124.87
X103.16Y-113.18
X103.16Y-115.99
X103.39Y-130.679
X103.48Y-123.11
X103.636Y-119.215
X103.901Y-120.717
X104.117Y-116.539
X104.12Y-131.315
X104.13Y-113.83
X104.13Y-128.373
X104.81Y-117.756
X105.45Y-114.48
X105.78Y-120.74
X105.97Y-132.04
X106.31Y-130.59
X106.33Y-127.57
X106.36Y-119.19
X106.44Y-115.99
X106.45Y-113.25
X107.23Y-137.05
X107.23Y-140.17
X108.28Y-135.47
X108.47Y-125.71
X108.83Y-123.34
X109.81Y-134.67
X111.24Y-126.03
X111.68Y-144.31
X112.22Y-125.12
X112.224Y-124.426
X113.23Y-143.57
X113.99Y-130.795
X113.99Y-131.605
X114.64Y-127.76
X114.93Y-123.71
X115.195Y-128.351
X115.442Y-128.954
X116.61Y-121.15
X116.77Y-136.15
X117.11Y-142.1
X117.2Y-132.19
X118.02Y-120.19
X118.138Y-125.055
X118.138Y-125.73
X118.138Y-126.405
X118.81Y-120.765
X118.91Y-125.055
X118.91Y-125.73
X118.91Y-126.405
X119.46Y-113.01
X119.682Y-125.055
X119.682Y-125.73
X119.682Y-126.405
X119.78Y-141.64
X119.98Y-136.09
X120.39Y-129.52
X120.454Y-125.055
X120.454Y-125.73
X120.454Y-126.405
X120.58Y-114.52
X121.05Y-113.0
X121.18Y-127.567
X121.226Y-125.055
X121.226Y-125.73
X121.226Y-126.405
X121.24Y-116.1
X121.24Y-116.95
X121.24Y-117.8
X121.487Y-119.896
X121.76Y-114.39
X121.96Y-141.7
X121.99Y-116.1
X121.99Y-116.95
X121.99Y-117.8
X121.998Y-125.055
X121.998Y-125.73
X121.998Y-126.405
X122.53Y-131.599
X122.74Y-116.1
X122.74Y-116.95
X122.74Y-117.8
X122.77Y-125.055
X122.77Y-125.73
X122.77Y-126.405
X123.12Y-122.11
X123.35Y-129.8
X123.542Y-125.055
X123.542Y-125.73
X123.542Y-126.405
X123.648Y-139.865
X124.17Y-114.606
X124.57Y-116.696
X124.6Y-131.59
X124.97Y-123.38
X125.01Y-119.44
X125.07Y-115.89
X125.09Y-115.11
X125.1Y-132.91
X125.25Y-129.82
X125.53Y-126.44
X125.6Y-120.29
X125.97Y-116.84
X125.99Y-132.4
X126.33Y-118.704
X126.55Y-132.77
X126.55Y-139.135
X126.678Y-135.66
X126.78Y-136.32
X126.94Y-116.23
X127.26Y-124.91
X127.53Y-136.266
X129.074Y-136.167
X129.081Y-134.727
X129.161Y-131.585
X129.46Y-116.834
X129.961Y-141.459
X130.62Y-119.76
X131.92Y-114.55
X132.13Y-119.73
X132.32Y-127.401
X132.69Y-114.59
X133.06Y-120.549
X133.06Y-121.349
X133.06Y-122.149
X133.06Y-117.37
X133.2Y-146.498
X133.7Y-116.33
X133.71Y-123.16
X133.818Y-120.571
X133.818Y-121.371
X133.818Y-122.171
X134.36Y-116.834
X134.577Y-120.56
X134.577Y-121.36
X134.577Y-122.16
X135.01Y-127.93
X135.02Y-117.49
X135.12Y-132.87
X135.2Y-145.8
X135.2Y-146.498
X135.335Y-120.54
X135.335Y-121.34
X135.335Y-122.14
X135.64Y-123.11
X136.093Y-120.549
X136.093Y-121.349
X136.093Y-122.149
X136.23Y-116.1
X136.31Y-119.74
X136.325Y-143.58
X136.33Y-144.29
X136.33Y-145.04
X136.33Y-145.78
X136.852Y-120.539
X136.852Y-121.339
X136.852Y-122.139
X136.88Y-126.22
X137.07Y-144.29
X137.075Y-143.58
X137.19Y-136.77
X137.61Y-120.528
X137.61Y-121.328
X137.61Y-122.128
X137.61Y-119.63
X137.66Y-128.87
X138.05Y-115.34
X139.2Y-146.48
X139.53Y-115.34
X139.53Y-127.35
X139.72Y-136.15
X140.21Y-145.9
X140.25Y-118.92
X140.258Y-123.62
X140.92Y-127.35
X141.2Y-145.07
X141.382Y-115.342
X141.58Y-118.75
X141.61Y-129.73
X141.71Y-136.02
X143.11Y-126.71
X143.19Y-146.48
X143.57Y-131.4
X144.019Y-126.737
X145.585Y-123.108
X146.19Y-146.51
X146.2Y-127.81
X147.197Y-143.166
X147.2Y-123.92
X147.23Y-136.147
X147.37Y-128.87
X147.438Y-120.518
X148.04Y-119.99
X148.15Y-130.55
X148.92Y-118.13
X149.21Y-136.05
X149.94Y-119.84
X150.2Y-127.415
X150.905Y-120.549
X150.905Y-121.349
X150.905Y-122.149
X151.542Y-116.466
X151.634Y-125.17
X151.663Y-120.571
X151.663Y-121.371
X151.663Y-122.171
X152.158Y-116.75
X152.422Y-120.56
X152.422Y-121.36
X152.422Y-122.16
X152.46Y-134.05
X152.5Y-129.73
X152.839Y-117.62
X153.05Y-127.95
X153.18Y-120.54
X153.18Y-121.34
X153.18Y-122.14
X153.51Y-123.28
X153.938Y-120.549
X153.938Y-121.349
X153.938Y-122.149
X153.95Y-114.48
X154.155Y-119.74
X154.197Y-142.662
X154.697Y-120.539
X154.697Y-121.339
X154.697Y-122.139
X154.78Y-115.33
X154.79Y-123.14
X154.85Y-116.716
X154.99Y-130.92
X155.12Y-140.92
X155.334Y-125.31
X155.43Y-119.47
X155.455Y-120.528
X155.455Y-121.328
X155.455Y-122.128
X155.69Y-146.22
X156.2Y-115.355
X156.37Y-144.67
X156.73Y-132.83
X157.34Y-144.66
X157.36Y-127.36
X157.68Y-115.35
X157.74Y-146.2
X157.95Y-131.93
X158.2Y-144.7
X158.4Y-122.128
X158.7Y-127.35
X159.197Y-145.74
X159.57Y-117.3
X159.76Y-118.31
X160.92Y-129.33
X160.94Y-131.27
X163.26Y-117.88
X163.44Y-120.52
X163.46Y-132.75
X163.62Y-116.12
X163.63Y-126.11
X164.19Y-126.444
X164.77Y-115.06
X164.91Y-133.09
X164.98Y-118.97
X165.22Y-146.498
X165.94Y-116.24
X166.32Y-128.42
X166.41Y-115.408
X166.49Y-129.98
X166.52Y-131.93
X166.87Y-116.28
X167.672Y-116.36
X168.41Y-127.84
X168.535Y-117.22
X169.43Y-123.39
X170.05Y-125.46
X170.55Y-126.98
X171.68Y-121.02
X173.81Y-134.05
X175.09Y-124.35
X176.014Y-126.236
X176.02Y-122.83
X181.18Y-130.26
X181.49Y-115.25
X181.78Y-119.32
X182.16Y-132.68
X186.94Y-132.7
X190.8Y-121.2
X190.8Y-123.2
X191.5Y-121.2
X191.5Y-123.2
X191.815Y-115.817
X192.13Y-131.66
X192.2Y-121.2
X192.2Y-123.2
X192.726Y-115.144
X192.9Y-121.2
X192.9Y-123.2
X195.02Y-118.266
X195.507Y-118.79
X196.23Y-118.18
X196.47Y-119.26
X196.5Y-123.3
X196.66Y-128.15
X197.2Y-120.5
X197.529Y-118.333
X197.9Y-120.5
X198.2Y-124.0
X198.6Y-120.5
X198.794Y-124.0
X199.26Y-119.33
X199.4Y-124.0
X200.58Y-122.37
X201.127Y-115.467
X201.14Y-121.12
X201.7Y-119.83
X202.47Y-113.54
X202.58Y-120.4
X202.92Y-114.04
X203.11Y-119.06
X203.36Y-118.37
X203.86Y-125.73
X203.93Y-134.36
X203.94Y-133.44
X204.03Y-130.7
X204.15Y-97.29
X204.79Y-130.66
X204.93Y-103.71
X205.39Y-135.12
X205.53Y-119.1
X206.09Y-90.26
X206.14Y-120.41
X206.44Y-83.26
X206.55Y-100.45
X206.61Y-118.75
X206.66Y-86.52
X206.76Y-127.95
X206.93Y-135.13
X206.99Y-118.21
X207.034Y-89.013
X207.31Y-92.8
X207.32Y-94.08
X207.34Y-91.53
X207.35Y-81.371
X207.36Y-85.181
X207.427Y-116.658
X207.43Y-102.53
X207.5Y-114.74
X207.5Y-127.04
X207.585Y-95.425
X207.6Y-86.451
X207.69Y-112.83
X207.714Y-96.721
X207.75Y-125.32
X208.34Y-100.82
X208.72Y-108.34
X208.9Y-81.371
X208.9Y-85.181
X208.9Y-89.0
X209.49Y-101.803
X209.7Y-83.63
X209.71Y-82.26
X209.81Y-70.44
X209.89Y-125.94
X209.9Y-112.42
X209.91Y-85.181
X209.92Y-87.721
X209.93Y-89.0
X209.95Y-90.26
X210.06Y-103.37
X210.109Y-95.318
X210.18Y-81.376
X210.5Y-66.78
X210.52Y-132.62
X211.09Y-71.99
X211.12Y-64.51
X211.15Y-133.5
X211.59Y-82.41
X214.06Y-75.16
X214.11Y-61.18
X216.05Y-68.98
X216.37Y-113.05
X216.37Y-125.31
X216.38Y-137.63
X217.93Y-102.01
X218.956Y-75.042
X218.98Y-137.63
X219.04Y-113.05
X219.09Y-125.33
X219.14Y-61.35
X219.19Y-114.75
X219.19Y-127.07
X219.59Y-117.37
X219.66Y-105.17
X219.71Y-72.93
X219.72Y-129.07
X219.73Y-127.69
X219.75Y-63.55
X220.01Y-103.95
X220.24Y-137.83
X220.26Y-118.04
X220.81Y-127.49
X220.817Y-132.961
X220.87Y-134.34
X220.91Y-112.52
X221.18Y-116.16
X221.45Y-122.75
X221.456Y-121.46
X221.57Y-126.07
X221.64Y-118.51
X222.05Y-110.74
X222.07Y-109.25
X222.5Y-111.64
X222.733Y-69.64
X222.925Y-114.912
X223.0Y-122.79
X223.14Y-112.065
X223.38Y-114.17
X223.572Y-114.99
X224.1Y-67.4
X224.1Y-69.2
X224.78Y-80.78
X224.81Y-131.42
X225.194Y-140.576
X225.22Y-95.366
X225.26Y-94.49
X225.3Y-67.4
X225.3Y-69.2
X225.31Y-99.42
X225.31Y-124.18
X225.34Y-100.98
X225.56Y-121.5
X225.567Y-93.623
X225.88Y-130.15
X225.95Y-120.49
X226.1Y-110.83
X226.12Y-110.11
X226.23Y-79.77
X226.27Y-117.8
X226.46Y-124.79
X226.52Y-94.75
X226.71Y-99.425
X226.735Y-95.366
X226.79Y-140.16
X227.09Y-114.49
X227.12Y-121.99
X227.29Y-93.67
X227.81Y-115.43
X227.83Y-142.674
X227.92Y-108.94
X227.99Y-93.78
X228.12Y-116.05
X228.12Y-116.78
X228.277Y-128.36
X228.46Y-139.02
X228.52Y-142.32
X228.78Y-91.78
X228.89Y-79.78
X228.92Y-122.78
X229.34Y-125.08
X229.41Y-137.23
X229.54Y-122.49
X229.56Y-93.55
X230.26Y-109.94
X230.412Y-125.455
X230.43Y-111.31
X230.43Y-135.47
X230.94Y-124.962
X231.026Y-131.7
X231.04Y-79.75
X231.06Y-113.65
X231.07Y-136.89
X231.33Y-137.77
X231.425Y-94.854
X231.52Y-96.27
X231.58Y-111.82
X231.681Y-126.22
X231.75Y-99.99
X231.96Y-103.513
X231.988Y-93.699
X232.25Y-99.46
X232.27Y-90.405
X232.28Y-140.51
X232.281Y-137.65
X232.281Y-139.15
X232.4Y-133.26
X232.46Y-101.48
X232.58Y-131.98
X232.62Y-127.07
X232.79Y-104.42
X232.91Y-93.95
X232.94Y-99.28
X233.07Y-136.2
X233.221Y-126.25
X233.24Y-90.44
X233.6Y-101.22
X233.64Y-93.95
X233.65Y-79.77
X233.743Y-103.685
X233.83Y-131.91
X233.83Y-140.5
X233.94Y-91.57
X234.68Y-126.36
X234.8Y-118.946
X234.81Y-140.7
X234.96Y-95.18
X235.14Y-104.208
X235.17Y-80.7
X235.22Y-119.45
X235.3Y-125.61
X235.73Y-94.17
X235.86Y-109.48
X235.86Y-131.81
X235.89Y-105.49
X236.43Y-108.905
X236.46Y-100.59
X236.486Y-132.31
X236.63Y-94.37
X236.83Y-90.995
X237.01Y-107.386
X237.03Y-131.8
X237.097Y-135.028
X237.097Y-135.79
X237.097Y-136.552
X237.105Y-106.615
X237.48Y-104.725
X237.595Y-132.308
X237.65Y-105.93
X237.68Y-140.68
X237.75Y-90.92
X237.89Y-135.028
X237.89Y-135.79
X237.89Y-136.552
X238.066Y-100.665
X238.15Y-131.8
X238.192Y-89.948
X238.21Y-140.03
X238.37Y-82.54
X238.38Y-93.333
X238.398Y-106.598
X238.479Y-125.226
X238.704Y-135.028
X238.704Y-135.79
X238.704Y-136.552
X238.705Y-132.29
X238.71Y-107.946
X238.84Y-89.77
X239.088Y-139.315
X239.265Y-131.77
X239.31Y-101.46
X239.74Y-139.315
X239.96Y-82.32
X240.11Y-110.47
X240.38Y-143.46
X240.89Y-135.55
X240.95Y-127.7
X240.97Y-126.06
X241.21Y-128.95
X241.46Y-136.05
X241.47Y-131.98
X241.65Y-83.18
X241.78Y-84.5
X241.79Y-94.955
X241.86Y-110.17
X241.95Y-106.37
X242.0Y-68.27
X242.01Y-136.59
X242.25Y-89.99
X242.45Y-82.47
X242.65Y-108.51
X242.95Y-103.76
X243.029Y-133.3
X243.07Y-142.77
X243.24Y-73.79
X243.59Y-108.0
X243.64Y-132.58
X243.71Y-127.59
X243.77Y-138.14
X243.96Y-134.85
X243.975Y-82.48
X244.06Y-119.47
X244.35Y-88.45
X244.493Y-101.523
X244.69Y-122.33
X244.77Y-83.62
X244.84Y-107.02
X244.89Y-114.51
X245.059Y-136.765
X245.16Y-137.41
X245.57Y-80.71
X245.68Y-125.02
X245.88Y-133.9
X245.89Y-135.45
X245.988Y-122.587
X246.15Y-94.16
X246.16Y-95.71
X246.8Y-122.92
X247.32Y-117.41
X247.35Y-114.955
X247.38Y-97.43
X247.5Y-122.35
X247.52Y-98.3
X247.86Y-116.965
X248.1Y-90.53
X248.12Y-107.6
X248.141Y-122.228
X248.173Y-116.325
X248.19Y-109.05
X248.21Y-113.55
X248.41Y-115.15
X248.71Y-127.72
X248.71Y-130.549
X248.95Y-106.72
X249.46Y-92.24
X249.47Y-91.33
X249.559Y-115.655
X249.57Y-107.59
X249.57Y-119.51
X249.88Y-140.63
X249.97Y-90.06
X250.51Y-116.94
X250.7Y-68.34
X250.788Y-115.82
X251.249Y-121.245
X252.62Y-106.81
X253.26Y-68.36
T2
X97.12Y-135.11
X97.12Y-137.25
X97.12Y-139.38
X97.12Y-141.53
X173.288Y-124.948
X185.378Y-124.954
X198.794Y-124.954
T3
X138.127Y-132.256
X140.127Y-132.256
X142.127Y-132.256
X144.857Y-132.273
X146.857Y-132.273
X148.857Y-132.273
T4
X185.378Y-120.63
T5
X80.58Y-113.42
X80.58Y-115.96
X80.58Y-118.5
X80.58Y-121.04
X80.58Y-123.58
X80.58Y-126.12
X80.58Y-128.66
X80.58Y-131.2
X80.58Y-133.74
X80.58Y-136.28
X80.58Y-138.82
X80.58Y-141.36
X83.12Y-113.42
X83.12Y-115.96
X83.12Y-118.5
X83.12Y-121.04
X83.12Y-123.58
X83.12Y-126.12
X83.12Y-128.66
X83.12Y-131.2
X83.12Y-133.74
X83.12Y-136.28
X83.12Y-138.82
X83.12Y-141.36
T6
X86.5Y-63.0
X86.5Y-147.0
M30
