G04 #@! TF.GenerationSoftware,KiCad,Pcbnew,10.0.6-10.0.6~ubuntu24.04.1*
G04 #@! TF.CreationDate,2026-08-30T11:16:05+02:00*
G04 #@! TF.ProjectId,EEZ DIB MIO168plus,45455a20-4449-4422-904d-494f31363870,r1B1*
G04 #@! TF.SameCoordinates,Original*
G04 #@! TF.FileFunction,Soldermask,Bot*
G04 #@! TF.FilePolarity,Negative*
%FSLAX46Y46*%
G04 Gerber Fmt 4.6, Leading zero omitted, Abs format (unit mm)*
G04 Created by KiCad (PCBNEW 10.0.6-10.0.6~ubuntu24.04.1) date 2026-08-30 11:16:05*
%MOMM*%
%LPD*%
G01*
G04 APERTURE LIST*
G04 Aperture macros list*
%AMRoundRect*
0 Rectangle with rounded corners*
0 $1 Rounding radius*
0 $2 $3 $4 $5 $6 $7 $8 $9 X,Y pos of 4 corners*
0 Add a 4 corners polygon primitive as box body*
4,1,4,$2,$3,$4,$5,$6,$7,$8,$9,$2,$3,0*
0 Add four circle primitives for the rounded corners*
1,1,$1+$1,$2,$3*
1,1,$1+$1,$4,$5*
1,1,$1+$1,$6,$7*
1,1,$1+$1,$8,$9*
0 Add four rect primitives between the rounded corners*
20,1,$1+$1,$2,$3,$4,$5,0*
20,1,$1+$1,$4,$5,$6,$7,0*
20,1,$1+$1,$6,$7,$8,$9,0*
20,1,$1+$1,$8,$9,$2,$3,0*%
%AMFreePoly0*
4,1,17,0.307927,0.679901,0.679901,0.307927,0.698500,0.263026,0.698500,-0.263026,0.679901,-0.307927,0.307927,-0.679901,0.263026,-0.698500,-0.263026,-0.698500,-0.307927,-0.679901,-0.679901,-0.307927,-0.698500,-0.263026,-0.698500,0.263026,-0.679901,0.307927,-0.307927,0.679901,-0.263026,0.698500,0.263026,0.698500,0.307927,0.679901,0.307927,0.679901,$1*%
G04 Aperture macros list end*
%ADD10C,0.200000*%
%ADD11C,1.270000*%
%ADD12C,1.800000*%
%ADD13C,1.600000*%
%ADD14C,2.387600*%
%ADD15C,0.990600*%
%ADD16RoundRect,0.552000X-0.450000X0.450000X-0.450000X-0.450000X0.450000X-0.450000X0.450000X0.450000X0*%
%ADD17C,2.004000*%
%ADD18C,5.652400*%
%ADD19C,1.397000*%
%ADD20FreePoly0,270.000000*%
G04 APERTURE END LIST*
D10*
G04 #@! TO.C,X1*
X132450000Y-146950000D02*
X166950000Y-146950000D01*
X166950000Y-152450000D01*
X132450000Y-152450000D01*
X132450000Y-146950000D01*
G36*
X166950000Y-152450000D02*
G01*
X132450000Y-152450000D01*
X132450000Y-146950000D01*
X166950000Y-146950000D01*
X166950000Y-152450000D01*
G37*
G04 #@! TD*
D11*
G04 #@! TO.C,TP5*
X97120000Y-135110000D03*
G04 #@! TD*
D12*
G04 #@! TO.C,TP4*
X185377738Y-120630000D03*
G04 #@! TD*
D11*
G04 #@! TO.C,TP6*
X97120000Y-137250000D03*
G04 #@! TD*
D13*
G04 #@! TO.C,X2*
X206250000Y-79161400D03*
X206250000Y-98821400D03*
G04 #@! TD*
D11*
G04 #@! TO.C,TP3*
X173287738Y-124948036D03*
G04 #@! TD*
D14*
G04 #@! TO.C,X3*
X223370000Y-133300000D03*
D15*
X225910000Y-133300000D03*
D14*
X228450000Y-133300000D03*
X223370000Y-130125000D03*
X228450000Y-130125000D03*
D15*
X224894000Y-128220000D03*
X226926000Y-128220000D03*
G04 #@! TD*
D11*
G04 #@! TO.C,TP7*
X97120000Y-139380000D03*
G04 #@! TD*
D16*
G04 #@! TO.C,X4*
X83120000Y-113420000D03*
D17*
X83120000Y-115960000D03*
X83120000Y-118500000D03*
X83120000Y-121040000D03*
X83120000Y-123580000D03*
X83120000Y-126120000D03*
X83120000Y-128660000D03*
X83120000Y-131200000D03*
X83120000Y-133740000D03*
X83120000Y-136280000D03*
X83120000Y-138820000D03*
X83120000Y-141360000D03*
X80580000Y-113420000D03*
X80580000Y-115960000D03*
X80580000Y-118500000D03*
X80580000Y-121040000D03*
X80580000Y-123580000D03*
X80580000Y-126120000D03*
X80580000Y-128660000D03*
X80580000Y-131200000D03*
X80580000Y-133740000D03*
X80580000Y-136280000D03*
X80580000Y-138820000D03*
X80580000Y-141360000D03*
G04 #@! TD*
D11*
G04 #@! TO.C,TP8*
X97120000Y-141530000D03*
G04 #@! TD*
D18*
G04 #@! TO.C,KK1*
X86500000Y-63000000D03*
G04 #@! TD*
D11*
G04 #@! TO.C,TP1*
X198794026Y-124954261D03*
G04 #@! TD*
D19*
G04 #@! TO.C,JP3*
X142127089Y-132256013D03*
X140127089Y-132256013D03*
D20*
X138127089Y-132256013D03*
G04 #@! TD*
D19*
G04 #@! TO.C,JP2*
X148857089Y-132272813D03*
X146857089Y-132272813D03*
D20*
X144857089Y-132272813D03*
G04 #@! TD*
D18*
G04 #@! TO.C,KK2*
X86500000Y-147000000D03*
G04 #@! TD*
D11*
G04 #@! TO.C,TP2*
X185377738Y-124954261D03*
G04 #@! TD*
M02*
