G04 #@! TF.GenerationSoftware,KiCad,Pcbnew,10.0.5-10.0.5~ubuntu24.04.1*
G04 #@! TF.CreationDate,2026-08-29T10:40:50+02:00*
G04 #@! TF.ProjectId,EEZ DIB MIO168plus,45455a20-4449-4422-904d-494f31363870,r1B1*
G04 #@! TF.SameCoordinates,Original*
G04 #@! TF.FileFunction,Profile,NP*
%FSLAX46Y46*%
G04 Gerber Fmt 4.6, Leading zero omitted, Abs format (unit mm)*
G04 Created by KiCad (PCBNEW 10.0.5-10.0.5~ubuntu24.04.1) date 2026-08-29 10:40:50*
%MOMM*%
%LPD*%
G01*
G04 APERTURE LIST*
G04 #@! TA.AperFunction,Profile*
%ADD10C,0.100000*%
G04 #@! TD*
G04 APERTURE END LIST*
D10*
X190200000Y-66400000D02*
G75*
G02*
X190200000Y-67400000I0J-500000D01*
G01*
X190200000Y-110600000D02*
G75*
G02*
X190200000Y-111600000I0J-500000D01*
G01*
X191404949Y-66100000D02*
G75*
G02*
X190804949Y-66100000I-300000J0D01*
G01*
X190804949Y-66100000D02*
G75*
G02*
X191404949Y-66100000I300000J0D01*
G01*
X191404949Y-111900000D02*
G75*
G02*
X190804949Y-111900000I-300000J0D01*
G01*
X190804949Y-111900000D02*
G75*
G02*
X191404949Y-111900000I300000J0D01*
G01*
X192404949Y-66100000D02*
G75*
G02*
X191804949Y-66100000I-300000J0D01*
G01*
X191804949Y-66100000D02*
G75*
G02*
X192404949Y-66100000I300000J0D01*
G01*
X192404949Y-111900000D02*
G75*
G02*
X191804949Y-111900000I-300000J0D01*
G01*
X191804949Y-111900000D02*
G75*
G02*
X192404949Y-111900000I300000J0D01*
G01*
X193404949Y-66100000D02*
G75*
G02*
X192804949Y-66100000I-300000J0D01*
G01*
X192804949Y-66100000D02*
G75*
G02*
X193404949Y-66100000I300000J0D01*
G01*
X193404949Y-111900000D02*
G75*
G02*
X192804949Y-111900000I-300000J0D01*
G01*
X192804949Y-111900000D02*
G75*
G02*
X193404949Y-111900000I300000J0D01*
G01*
X194100000Y-67400000D02*
G75*
G02*
X194100000Y-66400000I0J500000D01*
G01*
X194100000Y-67400000D02*
X197850000Y-67400000D01*
X194100000Y-110600000D02*
X197850000Y-110600000D01*
X194100000Y-111600000D02*
G75*
G02*
X194100000Y-110600000I0J500000D01*
G01*
X197850000Y-67400000D02*
G75*
G02*
X198350000Y-67900000I0J-500000D01*
G01*
X198350000Y-110100000D02*
G75*
G02*
X197850000Y-110600000I-500000J0D01*
G01*
X70000000Y-143500000D02*
X70000000Y-57500000D01*
X75000000Y-143500000D02*
X70000000Y-143500000D01*
X75000000Y-143500000D02*
X75000000Y-142000000D01*
X75500000Y-66400000D02*
X75500000Y-67400000D01*
X75500000Y-110600000D02*
X75500000Y-111600000D01*
X75500000Y-142000000D02*
X75000000Y-142000000D01*
X77000000Y-143500000D02*
G75*
G02*
X75500000Y-142000000I0J1500000D01*
G01*
X81000000Y-57500000D02*
X70000000Y-57500000D01*
X81000000Y-60000000D02*
X81000000Y-57500000D01*
X81000000Y-63900000D02*
X81000000Y-66400000D01*
X81000000Y-63900000D02*
G75*
G02*
X82000000Y-63900000I500000J0D01*
G01*
X81000000Y-66400000D02*
X75500000Y-66400000D01*
X82000000Y-59000000D02*
X82000000Y-60000000D01*
X82000000Y-59000000D02*
G75*
G02*
X83500000Y-57500000I1500000J0D01*
G01*
X82000000Y-60000000D02*
G75*
G02*
X81000000Y-60000000I-500000J0D01*
G01*
X82000000Y-63900000D02*
X82000000Y-66400000D01*
X82000000Y-143500000D02*
X77000000Y-143500000D01*
X82000000Y-151000000D02*
X82000000Y-143500000D01*
X82600000Y-60904949D02*
G75*
G02*
X82000000Y-60904949I-300000J0D01*
G01*
X82000000Y-60904949D02*
G75*
G02*
X82600000Y-60904949I300000J0D01*
G01*
X82600000Y-61904949D02*
G75*
G02*
X82000000Y-61904949I-300000J0D01*
G01*
X82000000Y-61904949D02*
G75*
G02*
X82600000Y-61904949I300000J0D01*
G01*
X82600000Y-62904949D02*
G75*
G02*
X82000000Y-62904949I-300000J0D01*
G01*
X82000000Y-62904949D02*
G75*
G02*
X82600000Y-62904949I300000J0D01*
G01*
X83500000Y-57500000D02*
X254000000Y-57500000D01*
X83500000Y-152500000D02*
G75*
G02*
X82000000Y-151000000I0J1500000D01*
G01*
X93200000Y-66400000D02*
X82000000Y-66400000D01*
X93200000Y-66400000D02*
G75*
G02*
X94750000Y-64850000I1550000J0D01*
G01*
X93200000Y-111600000D02*
X75500000Y-111600000D01*
X94750000Y-64850000D02*
G75*
G02*
X96300000Y-66400000I0J-1550000D01*
G01*
X94750000Y-113150000D02*
G75*
G02*
X93200000Y-111600000I0J1550000D01*
G01*
X96300000Y-66400000D02*
X190200000Y-66400000D01*
X96300000Y-111600000D02*
G75*
G02*
X94750000Y-113150000I-1550000J0D01*
G01*
X128500000Y-152500000D02*
X83500000Y-152500000D01*
X128500000Y-152500000D02*
X129000000Y-152000000D01*
X129000000Y-145000000D02*
G75*
G02*
X129837486Y-144149999I843700J6300D01*
G01*
X129000000Y-152000000D02*
X129000000Y-145000000D01*
X131642513Y-144150000D02*
X129837486Y-144150000D01*
X131645768Y-144149278D02*
G75*
G02*
X132542524Y-144999251I23432J-873322D01*
G01*
X166845000Y-145000000D02*
G75*
G02*
X167700000Y-144150000I852500J-2500D01*
G01*
X190200000Y-67400000D02*
X75500000Y-67400000D01*
X190200000Y-110600000D02*
X75500000Y-110600000D01*
X190200000Y-111600000D02*
X96300000Y-111600000D01*
X194100000Y-111600000D02*
X200100000Y-111600000D01*
X200100000Y-66400000D02*
X194100000Y-66400000D01*
X200100000Y-66400000D02*
G75*
G02*
X201600000Y-67900000I0J-1500000D01*
G01*
X198350000Y-67900000D02*
X198350000Y-110100000D01*
X201600000Y-67900000D02*
X201600000Y-91000000D01*
X201600000Y-91000000D02*
X201600000Y-110100000D01*
X201600000Y-110100000D02*
G75*
G02*
X200100000Y-111600000I-1500000J0D01*
G01*
X254000000Y-57500000D02*
G75*
G02*
X255500000Y-59000000I0J-1500000D01*
G01*
X254000000Y-144150000D02*
X167700000Y-144150000D01*
X255500000Y-59000000D02*
X256000000Y-59000000D01*
X255500000Y-142649895D02*
G75*
G02*
X254000000Y-144149900I-1500000J-5D01*
G01*
X255500000Y-142650000D02*
X256000000Y-142650000D01*
X256000000Y-57500000D02*
X256000000Y-59000000D01*
X256000000Y-57500000D02*
X261000000Y-57500000D01*
X256000000Y-144150000D02*
X256000000Y-142650000D01*
X256000000Y-144150000D02*
X261000000Y-144150000D01*
X261000000Y-144150000D02*
X261000000Y-57500000D01*
G04 #@! TO.C,X1*
X132550000Y-145000000D02*
X132550000Y-152000000D01*
X132550000Y-152000000D02*
X133047300Y-152500000D01*
X133047300Y-152500000D02*
X143247300Y-152500000D01*
X143247300Y-152500000D02*
X143747300Y-152000000D01*
X143747300Y-152000000D02*
X143747300Y-145050000D01*
X145647300Y-145050000D02*
X145647300Y-152000000D01*
X145647300Y-152000000D02*
X146147300Y-152500000D01*
X166347300Y-152500000D02*
X146147300Y-152500000D01*
X166847300Y-145000000D02*
X166847300Y-152000000D01*
X166847300Y-152000000D02*
X166347300Y-152500000D01*
X143747300Y-145050000D02*
G75*
G02*
X145647300Y-145050000I950000J0D01*
G01*
G04 #@! TD*
M02*
