%TF.GenerationSoftware,KiCad,Pcbnew,10.0.5-10.0.5~ubuntu24.04.1*%
%TF.CreationDate,2026-08-07T08:49:28+02:00*%
%TF.ProjectId,EEZ DIB MIO168plus,45455a20-4449-4422-904d-494f31363870,r1B1*%
%TF.SameCoordinates,Original*%
%TF.FileFunction,Other,User*%
%FSLAX46Y46*%
G04 Gerber Fmt 4.6, Leading zero omitted, Abs format (unit mm)*
G04 Created by KiCad (PCBNEW 10.0.5-10.0.5~ubuntu24.04.1) date 2026-08-07 08:49:28*
%MOMM*%
%LPD*%
G01*
G04 APERTURE LIST*
%ADD10C,0.100000*%
%ADD11C,0.150000*%
G04 APERTURE END LIST*
D10*
X75500000Y-142000000D02*
X75500000Y-59000000D01*
X255500000Y-142650000D02*
X255500000Y-59000000D01*
D11*
X74503152Y-102550125D02*
X75169819Y-102312030D01*
X75169819Y-102312030D02*
X74503152Y-102073935D01*
X74788866Y-101692982D02*
X74788866Y-100931078D01*
X75122200Y-100026316D02*
X75169819Y-100121554D01*
X75169819Y-100121554D02*
X75169819Y-100312030D01*
X75169819Y-100312030D02*
X75122200Y-100407268D01*
X75122200Y-100407268D02*
X75074580Y-100454887D01*
X75074580Y-100454887D02*
X74979342Y-100502506D01*
X74979342Y-100502506D02*
X74693628Y-100502506D01*
X74693628Y-100502506D02*
X74598390Y-100454887D01*
X74598390Y-100454887D02*
X74550771Y-100407268D01*
X74550771Y-100407268D02*
X74503152Y-100312030D01*
X74503152Y-100312030D02*
X74503152Y-100121554D01*
X74503152Y-100121554D02*
X74550771Y-100026316D01*
X74503152Y-99169173D02*
X75169819Y-99169173D01*
X74503152Y-99597744D02*
X75026961Y-99597744D01*
X75026961Y-99597744D02*
X75122200Y-99550125D01*
X75122200Y-99550125D02*
X75169819Y-99454887D01*
X75169819Y-99454887D02*
X75169819Y-99312030D01*
X75169819Y-99312030D02*
X75122200Y-99216792D01*
X75122200Y-99216792D02*
X75074580Y-99169173D01*
X74503152Y-98835839D02*
X74503152Y-98454887D01*
X74169819Y-98692982D02*
X75026961Y-98692982D01*
X75026961Y-98692982D02*
X75122200Y-98645363D01*
X75122200Y-98645363D02*
X75169819Y-98550125D01*
X75169819Y-98550125D02*
X75169819Y-98454887D01*
X256138566Y-102875125D02*
X256805233Y-102637030D01*
X256805233Y-102637030D02*
X256138566Y-102398935D01*
X256424280Y-102017982D02*
X256424280Y-101256078D01*
X256757614Y-100351316D02*
X256805233Y-100446554D01*
X256805233Y-100446554D02*
X256805233Y-100637030D01*
X256805233Y-100637030D02*
X256757614Y-100732268D01*
X256757614Y-100732268D02*
X256709994Y-100779887D01*
X256709994Y-100779887D02*
X256614756Y-100827506D01*
X256614756Y-100827506D02*
X256329042Y-100827506D01*
X256329042Y-100827506D02*
X256233804Y-100779887D01*
X256233804Y-100779887D02*
X256186185Y-100732268D01*
X256186185Y-100732268D02*
X256138566Y-100637030D01*
X256138566Y-100637030D02*
X256138566Y-100446554D01*
X256138566Y-100446554D02*
X256186185Y-100351316D01*
X256138566Y-99494173D02*
X256805233Y-99494173D01*
X256138566Y-99922744D02*
X256662375Y-99922744D01*
X256662375Y-99922744D02*
X256757614Y-99875125D01*
X256757614Y-99875125D02*
X256805233Y-99779887D01*
X256805233Y-99779887D02*
X256805233Y-99637030D01*
X256805233Y-99637030D02*
X256757614Y-99541792D01*
X256757614Y-99541792D02*
X256709994Y-99494173D01*
X256138566Y-99160839D02*
X256138566Y-98779887D01*
X255805233Y-99017982D02*
X256662375Y-99017982D01*
X256662375Y-99017982D02*
X256757614Y-98970363D01*
X256757614Y-98970363D02*
X256805233Y-98875125D01*
X256805233Y-98875125D02*
X256805233Y-98779887D01*
M02*
